{
  "accessors": [
    {
      "bufferView": 2,
      "componentType": 5126,
      "count": 62688,
      "max": [
        0.29611489176750183,
        0.13825124502182007,
        0.3271688222885132
      ],
      "min": [
        -0.18191933631896973,
        -0.16175106167793274,
        -0.16572502255439758
      ],
      "type": "VEC3"
    },
    {
      "bufferView": 2,
      "byteOffset": 752256,
      "componentType": 5126,
      "count": 62688,
      "max": [
        0.9953640103340149,
        0.9942995309829712,
        0.9996114373207092
      ],
      "min": [
        -0.9669814109802246,
        -0.9999866485595703,
        -0.988044023513794
      ],
      "type": "VEC3"
    },
    {
      "bufferView": 3,
      "componentType": 5126,
      "count": 62688,
      "max": [
        0.9998302459716797,
        0.9981073141098022,
        0.9999823570251465,
        1.0
      ],
      "min": [
        -0.9998798966407776,
        -0.9998736381530762,
        -0.9999104738235474,
        -1.0
      ],
      "type": "VEC4"
    },
    {
      "bufferView": 1,
      "componentType": 5126,
      "count": 62688,
      "max": [
        0.9944944381713867,
        0.9999885559082031
      ],
      "min": [
        9.999129360949155e-06,
        0.0008822083473205566
      ],
      "type": "VEC2"
    },
    {
      "bufferView": 1,
      "byteOffset": 501504,
      "componentType": 5126,
      "count": 62688,
      "max": [
        0.9944944381713867,
        0.9999885559082031
      ],
      "min": [
        9.999129360949155e-06,
        0.0008822083473205566
      ],
      "type": "VEC2"
    },
    {
      "bufferView": 0,
      "componentType": 5125,
      "count": 63864,
      "type": "SCALAR"
    }
  ],
  "asset": {
    "extras": {
      "author": "Dom S (https://sketchfab.com/dominiksubocz)",
      "license": "SKETCHFAB Standard (https://sketchfab.com/licenses)",
      "source": "https://sketchfab.com/3d-models/religious-souvenir-3afcd6bee82e488e845d9c78fd0edd59",
      "title": "Religious Souvenir"
    },
    "generator": "Sketchfab-16.28.0",
    "version": "2.0"
  },
  "bufferViews": [
    {
      "buffer": 0,
      "byteLength": 255456,
      "name": "floatBufferViews",
      "target": 34963
    },
    {
      "buffer": 0,
      "byteLength": 1003008,
      "byteOffset": 255456,
      "byteStride": 8,
      "name": "floatBufferViews",
      "target": 34962
    },
    {
      "buffer": 0,
      "byteLength": 1504512,
      "byteOffset": 1258464,
      "byteStride": 12,
      "name": "floatBufferViews",
      "target": 34962
    },
    {
      "buffer": 0,
      "byteLength": 1003008,
      "byteOffset": 2762976,
      "byteStride": 16,
      "name": "floatBufferViews",
      "target": 34962
    }
  ],
  "buffers": [
    {
      "byteLength": 3765984,
      "uri": "scene.bin"
    }
  ],
  "images": [
    {
      "uri": "textures/Material_0_baseColor.jpeg"
    },
    {
      "uri": "textures/Material_0_metallicRoughness.png"
    },
    {
      "uri": "textures/Material_0_normal.png"
    }
  ],
  "materials": [
    {
      "doubleSided": true,
      "name": "Material_0",
      "normalTexture": {
        "index": 2
      },
      "occlusionTexture": {
        "index": 1
      },
      "pbrMetallicRoughness": {
        "baseColorTexture": {
          "index": 0
        },
        "metallicFactor": 0.0,
        "metallicRoughnessTexture": {
          "index": 1
        }
      }
    }
  ],
  "meshes": [
    {
      "name": "Mesh_0_Material_0_0",
      "primitives": [
        {
          "attributes": {
            "NORMAL": 1,
            "POSITION": 0,
            "TANGENT": 2,
            "TEXCOORD_0": 3,
            "TEXCOORD_1": 4
          },
          "indices": 5,
          "material": 0,
          "mode": 4
        }
      ]
    }
  ],
  "nodes": [
    {
      "children": [
        1
      ],
      "matrix": [
        1.0,
        0.0,
        0.0,
        0.0,
        0.0,
        2.220446049250313e-16,
        -1.0,
        0.0,
        0.0,
        1.0,
        2.220446049250313e-16,
        0.0,
        0.0,
        0.0,
        0.0,
        1.0
      ],
      "name": "Sketchfab_model"
    },
    {
      "children": [
        2
      ],
      "matrix": [
        0.009999999776482582,
        0.0,
        0.0,
        0.0,
        0.0,
        0.0,
        0.009999999776482582,
        0.0,
        0.0,
        -0.009999999776482582,
        0.0,
        0.0,
        0.0,
        0.0,
        0.0,
        1.0
      ],
      "name": "religion souvenir.fbx"
    },
    {
      "children": [
        3
      ],
      "name": "RootNode"
    },
    {
      "children": [
        4
      ],
      "matrix": [
        71.58293790291751,
        53.74690012132041,
        -44.577519608148094,
        0.0,
        -13.945571874287216,
        -51.54947641062726,
        -84.54686574255297,
        0.0,
        -68.42079222110966,
        66.73771534839989,
        -29.405314858230835,
        0.0,
        0.0,
        0.0,
        0.0,
        1.0
      ],
      "name": "Mesh_0"
    },
    {
      "mesh": 0,
      "name": "Mesh_0_Material_0_0"
    }
  ],
  "samplers": [
    {
      "magFilter": 9729,
      "minFilter": 9987,
      "wrapS": 10497,
      "wrapT": 10497
    }
  ],
  "scene": 0,
  "scenes": [
    {
      "name": "Sketchfab_Scene",
      "nodes": [
        0
      ]
    }
  ],
  "textures": [
    {
      "sampler": 0,
      "source": 0
    },
    {
      "sampler": 0,
      "source": 1
    },
    {
      "sampler": 0,
      "source": 2
    }
  ]
}
