{
  "accessors": [
    {
      "bufferView": 2,
      "componentType": 5126,
      "count": 65534,
      "max": [
        0.3712034225463867,
        0.2517796754837036,
        0.49736955761909485
      ],
      "min": [
        -0.28152772784233093,
        -0.27055084705352783,
        -0.4221818745136261
      ],
      "type": "VEC3"
    },
    {
      "bufferView": 2,
      "byteOffset": 786408,
      "componentType": 5126,
      "count": 65534,
      "max": [
        0.9999534487724304,
        0.9999910593032837,
        0.9999698400497437
      ],
      "min": [
        -0.9999990463256836,
        -0.9999921321868896,
        -0.999854564666748
      ],
      "type": "VEC3"
    },
    {
      "bufferView": 1,
      "componentType": 5126,
      "count": 65534,
      "max": [
        0.9929054975509644,
        0.9975608587265015
      ],
      "min": [
        0.002439125906676054,
        0.010983765125274658
      ],
      "type": "VEC2"
    },
    {
      "bufferView": 0,
      "componentType": 5125,
      "count": 351027,
      "type": "SCALAR"
    },
    {
      "bufferView": 2,
      "byteOffset": 1572816,
      "componentType": 5126,
      "count": 47937,
      "max": [
        0.35671466588974,
        0.17490410804748535,
        0.5663485527038574
      ],
      "min": [
        -0.2844070494174957,
        -0.275518536567688,
        -0.4221818745136261
      ],
      "type": "VEC3"
    },
    {
      "bufferView": 2,
      "byteOffset": 2148060,
      "componentType": 5126,
      "count": 47937,
      "max": [
        0.9998980164527893,
        0.9997956156730652,
        0.9998687505722046
      ],
      "min": [
        -0.9999815821647644,
        -0.999973714351654,
        -0.9998375177383423
      ],
      "type": "VEC3"
    },
    {
      "bufferView": 1,
      "byteOffset": 524272,
      "componentType": 5126,
      "count": 47937,
      "max": [
        0.9975608587265015,
        0.9975608587265015
      ],
      "min": [
        0.002439125906676054,
        0.010203063488006592
      ],
      "type": "VEC2"
    },
    {
      "bufferView": 0,
      "byteOffset": 1404108,
      "componentType": 5125,
      "count": 239337,
      "type": "SCALAR"
    }
  ],
  "asset": {
    "extras": {
      "author": "Fabian Mohr (https://sketchfab.com/fabianmohr)",
      "license": "SKETCHFAB Standard (https://sketchfab.com/licenses)",
      "source": "https://sketchfab.com/3d-models/angel-sculpture-by-matteo-civitali-c44411ccbd97489ab3097a0e09a3d137",
      "title": "Angel sculpture by Matteo Civitali"
    },
    "generator": "Sketchfab-16.52.0",
    "version": "2.0"
  },
  "bufferViews": [
    {
      "buffer": 0,
      "byteLength": 2361456,
      "name": "floatBufferViews",
      "target": 34963
    },
    {
      "buffer": 0,
      "byteLength": 907768,
      "byteOffset": 2361456,
      "byteStride": 8,
      "name": "floatBufferViews",
      "target": 34962
    },
    {
      "buffer": 0,
      "byteLength": 2723304,
      "byteOffset": 3269224,
      "byteStride": 12,
      "name": "floatBufferViews",
      "target": 34962
    }
  ],
  "buffers": [
    {
      "byteLength": 5992528,
      "uri": "scene.bin"
    }
  ],
  "extensionsUsed": [
    "KHR_materials_unlit"
  ],
  "images": [
    {
      "uri": "textures/material_0_baseColor.jpeg"
    }
  ],
  "materials": [
    {
      "doubleSided": true,
      "extensions": {
        "KHR_materials_unlit": {}
      },
      "name": "material_0",
      "pbrMetallicRoughness": {
        "baseColorTexture": {
          "index": 0
        },
        "metallicFactor": 0.0
      }
    }
  ],
  "meshes": [
    {
      "name": "Object_0",
      "primitives": [
        {
          "attributes": {
            "NORMAL": 1,
            "POSITION": 0,
            "TEXCOORD_0": 2
          },
          "indices": 3,
          "material": 0,
          "mode": 4
        }
      ]
    },
    {
      "name": "Object_1",
      "primitives": [
        {
          "attributes": {
            "NORMAL": 5,
            "POSITION": 4,
            "TEXCOORD_0": 6
          },
          "indices": 7,
          "material": 0,
          "mode": 4
        }
      ]
    }
  ],
  "nodes": [
    {
      "children": [
        1
      ],
      "matrix": [
        0.9960641860961914,
        -0.08163309842348097,
        -0.0345285050570965,
        0.0,
        -0.05561945587396622,
        -0.27235081791877724,
        -0.9605891704559327,
        0.0,
        0.06901200115680695,
        0.9587289094924928,
        -0.275819271802902,
        0.0,
        0.0,
        0.0,
        0.0,
        1.0
      ],
      "name": "Sketchfab_model"
    },
    {
      "children": [
        2,
        3
      ],
      "name": "model_mesh.obj.cleaner.materialmerger.gles"
    },
    {
      "mesh": 0,
      "name": "Object_2"
    },
    {
      "mesh": 1,
      "name": "Object_3"
    }
  ],
  "samplers": [
    {
      "magFilter": 9729,
      "minFilter": 9987,
      "wrapS": 10497,
      "wrapT": 10497
    }
  ],
  "scene": 0,
  "scenes": [
    {
      "name": "Sketchfab_Scene",
      "nodes": [
        0
      ]
    }
  ],
  "textures": [
    {
      "sampler": 0,
      "source": 0
    }
  ]
}
